<svg width="32" height="32" viewBox="0 0 32 32" xmlns="http://www.w3.org/2000/svg">
  <!-- Background circle for globe effect -->
  <circle cx="16" cy="16" r="14" fill="none" stroke="#1e40af" stroke-width="2" opacity="0.4"/>
  <circle cx="16" cy="16" r="10" fill="none" stroke="#3b82f6" stroke-width="1.5" opacity="0.6"/>
  
  <!-- Globe lines -->
  <path d="M 4 16 Q 16 6 28 16 Q 16 26 4 16" fill="none" stroke="#1e40af" stroke-width="1.5"/>
  <path d="M 16 4 Q 24 16 16 28 Q 8 16 16 4" fill="none" stroke="#1e40af" stroke-width="1.5"/>
  <line x1="4" y1="16" x2="28" y2="16" stroke="#3b82f6" stroke-width="1"/>
  
  <!-- Signal/broadcast waves -->
  <path d="M 20 8 Q 26 12 22 16" fill="none" stroke="#ef4444" stroke-width="1.5" stroke-linecap="round"/>
  <path d="M 23 6 Q 30 10 26 15" fill="none" stroke="#ef4444" stroke-width="1" stroke-linecap="round" opacity="0.7"/>
  
  <!-- AI Circuit pattern -->
  <g opacity="0.7">
    <circle cx="12" cy="10" r="1.5" fill="#10b981"/>
    <circle cx="20" cy="14" r="1.5" fill="#10b981"/>
    <circle cx="12" cy="22" r="1.5" fill="#10b981"/>
    <line x1="12" y1="10" x2="20" y2="14" stroke="#10b981" stroke-width="1"/>
    <line x1="20" y1="14" x2="12" y2="22" stroke="#10b981" stroke-width="1"/>
  </g>
  
  <!-- K letter overlay -->
  <text x="16" y="20" font-family="Arial, sans-serif" font-weight="bold" font-size="12" fill="#1e40af" text-anchor="middle">K</text>
</svg>
