<svg width="260" height="70" viewBox="0 0 260 70" xmlns="http://www.w3.org/2000/svg">
  <defs>
    <!-- Professional gradients -->
    <linearGradient id="primaryBlue" x1="0%" y1="0%" x2="100%" y2="100%">
      <stop offset="0%" style="stop-color:#1a237e;stop-opacity:1" />
      <stop offset="100%" style="stop-color:#283593;stop-opacity:1" />
    </linearGradient>
    
    <linearGradient id="accentBlue" x1="0%" y1="0%" x2="100%" y2="100%">
      <stop offset="0%" style="stop-color:#4a148c;stop-opacity:1" />
      <stop offset="100%" style="stop-color:#6a1b9a;stop-opacity:1" />
    </linearGradient>
    
    <linearGradient id="techGreen" x1="0%" y1="0%" x2="100%" y2="100%">
      <stop offset="0%" style="stop-color:#10b981;stop-opacity:1" />
      <stop offset="100%" style="stop-color:#059669;stop-opacity:1" />
    </linearGradient>
    
    <!-- Professional shadow -->
    <filter id="modernShadow" x="-20%" y="-20%" width="140%" height="140%">
      <feDropShadow dx="1" dy="2" stdDeviation="3" flood-opacity="0.2"/>
    </filter>
  </defs>
  
  <!-- Tech Lion Form -->
  <g transform="translate(35, 35)" filter="url(#modernShadow)">
    <!-- Lion head shape with tech elements -->
    <circle cx="0" cy="-2" r="18" fill="url(#primaryBlue)" opacity="0.9"/>
    
    <!-- Lion mane as circuit pattern -->
    <g stroke="url(#techGreen)" stroke-width="1.5" fill="none" opacity="0.7">
      <circle cx="-12" cy="-12" r="4"/>
      <circle cx="12" cy="-12" r="4"/>
      <circle cx="-14" cy="2" r="3"/>
      <circle cx="14" cy="2" r="3"/>
      <circle cx="0" cy="-18" r="3"/>
    </g>
    
    <!-- Lion face with tech integration -->
    <ellipse cx="0" cy="-2" rx="12" ry="10" fill="url(#accentBlue)" opacity="0.9"/>
    
    <!-- Tech-enhanced eyes -->
    <g fill="url(#techGreen)">
      <circle cx="-4" cy="-6" r="2"/>
      <circle cx="4" cy="-6" r="2"/>
      <circle cx="-4" cy="-6" r="1" fill="white"/>
      <circle cx="4" cy="-6" r="1" fill="white"/>
    </g>
    
    <!-- Digital nose/sensor -->
    <rect x="-1" y="0" width="2" height="3" fill="white" rx="1"/>
    
    <!-- Circuit whiskers -->
    <g stroke="white" stroke-width="1" opacity="0.8">
      <line x1="-8" y1="-2" x2="-12" y2="-1"/>
      <line x1="-8" y1="1" x2="-12" y2="2"/>
      <line x1="8" y1="-2" x2="12" y2="-1"/>
      <line x1="8" y1="1" x2="12" y2="2"/>
    </g>
    
    <!-- Tech connection points -->
    <g fill="white" opacity="0.9">
      <circle cx="-10" cy="-8" r="1"/>
      <circle cx="10" cy="-8" r="1"/>
      <circle cx="-8" cy="8" r="1"/>
      <circle cx="8" cy="8" r="1"/>
    </g>
  </g>
  
  <!-- Company Name -->
  <g font-family="'Segoe UI', Arial, sans-serif" font-weight="bold">
    <!-- KaiTech Text with modern styling -->
    <text x="80" y="28" font-size="32" fill="url(#primaryBlue)" font-weight="700" letter-spacing="-1px">Kai</text>
    <text x="130" y="28" font-size="32" fill="url(#accentBlue)" font-weight="700" letter-spacing="-1px">Tech</text>
    
    <!-- Voice of Time tagline -->
    <text x="80" y="45" font-size="14" fill="#6b7280" font-weight="600" font-style="italic">"Voice of Time"</text>
  </g>
  
  <!-- Modern decorative elements -->
  <g opacity="0.6">
    <!-- Sleek connecting line -->
    <line x1="78" y1="31" x2="245" y2="31" stroke="url(#primaryBlue)" stroke-width="1"/>
    
    <!-- Tech accent elements -->
    <g fill="url(#techGreen)" opacity="0.7">
      <rect x="240" y="8" width="2" height="2" rx="1"/>
      <rect x="244" y="10" width="2" height="2" rx="1"/>
      <rect x="248" y="12" width="2" height="2" rx="1"/>
    </g>
    
    <!-- Data visualization elements -->
    <g stroke="url(#accentBlue)" stroke-width="1" fill="none" opacity="0.5">
      <path d="M 220 15 L 225 10 L 230 12 L 235 8" stroke-linecap="round"/>
      <circle cx="225" cy="10" r="1" fill="url(#accentBlue)"/>
      <circle cx="230" cy="12" r="1" fill="url(#accentBlue)"/>
    </g>
  </g>
  
  <!-- Subtle professional accent -->
  <rect x="78" y="60" width="30" height="1" fill="url(#techGreen)" opacity="0.4"/>
</svg>
