<?xml version="1.0" encoding="UTF-8"?>
<svg width="32" height="32" viewBox="0 0 32 32" xmlns="http://www.w3.org/2000/svg">
  <defs>
    <!-- Ultra Premium Gradients -->
    <linearGradient id="premiumGradient" x1="0%" y1="0%" x2="100%" y2="100%">
      <stop offset="0%" style="stop-color:#0f172a;stop-opacity:1" />
      <stop offset="50%" style="stop-color:#1e293b;stop-opacity:1" />
      <stop offset="100%" style="stop-color:#0ea5e9;stop-opacity:1" />
    </linearGradient>
    
    <linearGradient id="accentGradient" x1="0%" y1="0%" x2="100%" y2="100%">
      <stop offset="0%" style="stop-color:#8b5cf6;stop-opacity:1" />
      <stop offset="100%" style="stop-color:#10b981;stop-opacity:1" />
    </linearGradient>
    
    <!-- Premium Shadow -->
    <filter id="faviconShadow" x="-50%" y="-50%" width="200%" height="200%">
      <feDropShadow dx="0" dy="1" stdDeviation="2" flood-color="#000000" flood-opacity="0.3"/>
    </filter>
    
    <filter id="glow" x="-50%" y="-50%" width="200%" height="200%">
      <feGaussianBlur stdDeviation="1" result="coloredBlur"/>
      <feMerge>
        <feMergeNode in="coloredBlur"/>
        <feMergeNode in="SourceGraphic"/>
      </feMerge>
    </filter>
  </defs>
  
  <!-- Background circle -->
  <circle cx="16" cy="16" r="15" fill="url(#premiumGradient)" filter="url(#faviconShadow)"/>
  
  <!-- Main K symbol -->
  <g transform="translate(16, 16)" filter="url(#glow)">
    <!-- Simplified K structure -->
    <path d="M -6 -8 L -6 8 L -3 8 L -3 1.5 L 2.5 8 L 6 8 L -0.5 -0.5 L 5 -8 L 1.5 -8 L -3 -2 L -3 -8 Z" 
          fill="white" stroke="none"/>
    
    <!-- Tech accent -->
    <circle cx="7" cy="-5" r="1.5" fill="url(#accentGradient)" opacity="0.9"/>
    <circle cx="8" cy="0" r="1.2" fill="white" opacity="0.8"/>
    <circle cx="6.5" cy="5" r="1.3" fill="url(#accentGradient)" opacity="0.9"/>
    
    <!-- Connection lines -->
    <g stroke="white" stroke-width="0.8" opacity="0.6" fill="none">
      <path d="M 7 -3.5 Q 8 -1.5 8 1.2" stroke-linecap="round"/>
      <path d="M 8 1.2 Q 7.5 3 6.5 3.7" stroke-linecap="round"/>
    </g>
    
    <!-- Data points -->
    <g fill="white" opacity="0.9">
      <circle cx="7" cy="-5" r="0.6"/>
      <circle cx="8" cy="0" r="0.5"/>
      <circle cx="6.5" cy="5" r="0.6"/>
    </g>
  </g>
  
  <!-- Subtle border -->
  <circle cx="16" cy="16" r="15" fill="none" stroke="rgba(255,255,255,0.1)" stroke-width="0.5"/>
  
</svg>
